<svg xmlns="http://www.w3.org/2000/svg" viewBox="0 0 939 939"><defs><style>.cls-1{fill:#fad3ba;}.cls-2{fill:#666;}.cls-3{font-size:54px;fill:#1a1a1a;stroke:#1a1a1a;stroke-miterlimit:10;font-family:InkFree, Ink Free;}</style></defs><g id="Camada_1" data-name="Camada 1"><path class="cls-1" d="M27.5,514A468.83,468.83,0,0,1,90,280.4L494.63,514Z" transform="translate(-27 -45)"/><path class="cls-2" d="M90.2,281.08,492.77,513.5H28A466.39,466.39,0,0,1,90.2,281.08m-.36-1.37A467.38,467.38,0,0,0,27,514.5H496.5L89.84,279.71Z" transform="translate(-27 -45)"/><path class="cls-1" d="M90.52,279.53a471.44,471.44,0,0,1,171-171l233.6,404.61Z" transform="translate(-27 -45)"/><path class="cls-2" d="M261.35,109.21,493.77,511.77,91.21,279.35A470.86,470.86,0,0,1,261.35,109.21m.36-1.37A471.82,471.82,0,0,0,89.84,279.71L496.5,514.5,261.71,107.84Z" transform="translate(-27 -45)"/><path class="cls-1" d="M262.4,108A468.83,468.83,0,0,1,496,45.5V512.63Z" transform="translate(-27 -45)"/><path class="cls-2" d="M495.5,46V510.77L263.08,108.2A466.39,466.39,0,0,1,495.5,46m1-1a467.38,467.38,0,0,0-234.79,62.84L496.5,514.5V45Z" transform="translate(-27 -45)"/><path class="cls-1" d="M498.37,514,903,280.4A468.83,468.83,0,0,1,965.5,514Z" transform="translate(-27 -45)"/><path class="cls-2" d="M902.8,281.08A466.39,466.39,0,0,1,965,513.5H500.23L902.8,281.08m.36-1.37L496.5,514.5H966a467.38,467.38,0,0,0-62.84-234.79Z" transform="translate(-27 -45)"/><path class="cls-1" d="M497,45.5A468.85,468.85,0,0,1,730.6,108L497,512.63Z" transform="translate(-27 -45)"/><path class="cls-2" d="M497.5,46a466.39,466.39,0,0,1,232.42,62.2L497.5,510.77V46m-1-1V514.5L731.29,107.84A467.38,467.38,0,0,0,496.5,45Z" transform="translate(-27 -45)"/><path class="cls-1" d="M731.47,108.52a471.44,471.44,0,0,1,171,171L497.87,513.13Z" transform="translate(-27 -45)"/><path class="cls-2" d="M731.65,109.21A470.86,470.86,0,0,1,901.79,279.35L499.23,511.77,731.65,109.21m-.36-1.37L496.5,514.5,903.16,279.71A471.82,471.82,0,0,0,731.29,107.84Z" transform="translate(-27 -45)"/><path class="cls-1" d="M261.53,920.48a471.44,471.44,0,0,1-171-171l404.61-233.6Z" transform="translate(-27 -45)"/><path class="cls-2" d="M493.77,517.23,261.35,919.79A470.86,470.86,0,0,1,91.21,749.65L493.77,517.23m2.73-2.73L89.84,749.29A471.82,471.82,0,0,0,261.71,921.16L496.5,514.5Z" transform="translate(-27 -45)"/><path class="cls-1" d="M498.37,515H965.5A468.83,468.83,0,0,1,903,748.6Z" transform="translate(-27 -45)"/><path class="cls-2" d="M965,515.5a466.39,466.39,0,0,1-62.2,232.42L500.23,515.5H965m1-1H496.5L903.16,749.29A467.38,467.38,0,0,0,966,514.5Z" transform="translate(-27 -45)"/><path class="cls-1" d="M497.87,515.87l404.61,233.6a471.44,471.44,0,0,1-171,171Z" transform="translate(-27 -45)"/><path class="cls-2" d="M499.23,517.23,901.79,749.65A470.86,470.86,0,0,1,731.65,919.79L499.23,517.23m-2.73-2.73L731.29,921.16A471.82,471.82,0,0,0,903.16,749.29L496.5,514.5Z" transform="translate(-27 -45)"/><path class="cls-1" d="M90,748.6A468.85,468.85,0,0,1,27.5,515H494.63Z" transform="translate(-27 -45)"/><path class="cls-2" d="M492.77,515.5,90.2,747.92A466.39,466.39,0,0,1,28,515.5H492.77m3.73-1H27A467.38,467.38,0,0,0,89.84,749.29L496.5,514.5Z" transform="translate(-27 -45)"/><path class="cls-1" d="M496,983.5A468.83,468.83,0,0,1,262.4,921L496,516.37Z" transform="translate(-27 -45)"/><path class="cls-2" d="M495.5,518.23V983a466.39,466.39,0,0,1-232.42-62.2L495.5,518.23m1-3.73L261.71,921.16A467.38,467.38,0,0,0,496.5,984V514.5Z" transform="translate(-27 -45)"/><path class="cls-1" d="M497,516.37,730.6,921A468.83,468.83,0,0,1,497,983.5Z" transform="translate(-27 -45)"/><path class="cls-2" d="M497.5,518.23,729.92,920.8A466.39,466.39,0,0,1,497.5,983V518.23m-1-3.73V984a467.38,467.38,0,0,0,234.79-62.84L496.5,514.5Z" transform="translate(-27 -45)"/></g><g id="Camada_4" data-name="Camada 4"><text class="cls-3" transform="translate(334.67 73.23)">C</text><text class="cls-3" transform="translate(508.65 55.34) rotate(15.91)">C#/Db</text><text class="cls-3" transform="translate(841.74 301.86) rotate(72.88)">D#/Eb</text><text class="cls-3" transform="translate(876.31 547.74) rotate(122.35)">E</text><text class="cls-3" transform="translate(748.17 160.93) rotate(45.11)">D</text><text class="cls-3" transform="matrix(-0.8, 0.6, -0.6, -0.8, 772.47, 755.48)">F</text><text class="cls-3" transform="translate(654.04 851.74) rotate(166.67)">F#/Gb</text><text class="cls-3" transform="translate(392.79 873.66) rotate(-170.35)">G</text><text class="cls-3" transform="translate(233.54 815.23) rotate(-136.78)">G#/Ab</text><text class="cls-3" transform="matrix(-0.41, -0.91, 0.91, -0.41, 78.33, 592.85)">A</text><text class="cls-3" transform="translate(51.27 427.76) rotate(-74.09)">A#/Bb</text><text class="cls-3" transform="translate(150.52 177.88)">B</text></g></svg>