<svg xmlns="http://www.w3.org/2000/svg" viewBox="0 0 781.92 774.37"><defs><style>.cls-1{fill:#bdccd4;}.cls-2{fill:#333;}.cls-3{fill:#ccc;}.cls-4{fill:#e6e6e6;}.cls-5{fill:#4d4d4d;}.cls-6,.cls-7{font-size:94px;}.cls-6,.cls-7,.cls-8{fill:#1a1a1a;font-family:OmnesCond-Bold, Omnes Cond;font-weight:700;}.cls-6{letter-spacing:-0.02em;}.cls-8{font-size:54px;}</style></defs><g id="Camada_3" data-name="Camada 3"><path class="cls-1" d="M109.94,514.32a386.36,386.36,0,0,1,51.5-192.44L494.75,514.32Z" transform="translate(-109.43 -127.63)"/><path class="cls-2" d="M161.62,322.56,492.89,513.82H110.44a384.25,384.25,0,0,1,51.18-191.26m-.36-1.37a385.38,385.38,0,0,0-51.83,193.63H496.62L161.26,321.19Z" transform="translate(-109.43 -127.63)"/><path class="cls-3" d="M161.94,321A388.63,388.63,0,0,1,302.81,180.14L495.25,513.45Z" transform="translate(-109.43 -127.63)"/><path class="cls-2" d="M302.63,180.82,493.89,512.08,162.62,320.83a388.19,388.19,0,0,1,140-140m.37-1.37A389.06,389.06,0,0,0,161.26,321.19L496.62,514.82,303,179.45Z" transform="translate(-109.43 -127.63)"/><path class="cls-4" d="M303.68,179.64a386.5,386.5,0,0,1,192.44-51.51V513Z" transform="translate(-109.43 -127.63)"/><path class="cls-2" d="M495.62,128.63V511.08L304.36,179.82a384.47,384.47,0,0,1,191.26-51.19m1-1A385.41,385.41,0,0,0,303,179.45L496.62,514.82V127.63Z" transform="translate(-109.43 -127.63)"/><path class="cls-1" d="M498.48,514.32,831.8,321.88a386.49,386.49,0,0,1,51.5,192.44Z" transform="translate(-109.43 -127.63)"/><path class="cls-2" d="M831.62,322.56A384.25,384.25,0,0,1,882.8,513.82H500.35L831.62,322.56m.36-1.37L496.62,514.82H883.8A385.37,385.37,0,0,0,832,321.19Z" transform="translate(-109.43 -127.63)"/><path class="cls-1" d="M497.12,128.13a386.5,386.5,0,0,1,192.44,51.51L497.12,513Z" transform="translate(-109.43 -127.63)"/><path class="cls-2" d="M497.62,128.63a384.4,384.4,0,0,1,191.25,51.19L497.62,511.08V128.63m-1-1V514.82L690.24,179.45a385.44,385.44,0,0,0-193.62-51.82Z" transform="translate(-109.43 -127.63)"/><path class="cls-5" d="M690.42,180.14A388.66,388.66,0,0,1,831.3,321L498,513.45Z" transform="translate(-109.43 -127.63)"/><path class="cls-2" d="M690.61,180.82a388.17,388.17,0,0,1,140,140L499.35,512.08,690.61,180.82m-.37-1.37L496.62,514.82,832,321.19A389.06,389.06,0,0,0,690.24,179.45Z" transform="translate(-109.43 -127.63)"/><path class="cls-1" d="M302.81,849.5A388.73,388.73,0,0,1,161.94,708.62L495.25,516.18Z" transform="translate(-109.43 -127.63)"/><path class="cls-2" d="M493.89,517.55,302.63,848.81a388.19,388.19,0,0,1-140-140L493.89,517.55m2.73-2.73L161.26,708.44A389.06,389.06,0,0,0,303,850.18L496.62,514.82Z" transform="translate(-109.43 -127.63)"/><path class="cls-4" d="M498.48,515.32H883.3a386.45,386.45,0,0,1-51.5,192.43Z" transform="translate(-109.43 -127.63)"/><path class="cls-2" d="M882.8,515.82a384.25,384.25,0,0,1-51.18,191.25L500.35,515.82H882.8m1-1H496.62L832,708.44A385.37,385.37,0,0,0,883.8,514.82Z" transform="translate(-109.43 -127.63)"/><path class="cls-5" d="M498,516.18,831.3,708.62A388.68,388.68,0,0,1,690.42,849.5Z" transform="translate(-109.43 -127.63)"/><path class="cls-2" d="M499.35,517.55,830.61,708.8a388.17,388.17,0,0,1-140,140L499.35,517.55m-2.73-2.73L690.24,850.18A389.06,389.06,0,0,0,832,708.44L496.62,514.82Z" transform="translate(-109.43 -127.63)"/><path class="cls-5" d="M161.44,707.75a386.35,386.35,0,0,1-51.5-192.43H494.75Z" transform="translate(-109.43 -127.63)"/><path class="cls-2" d="M492.89,515.82,161.62,707.07a384.25,384.25,0,0,1-51.18-191.25H492.89m3.73-1H109.43a385.37,385.37,0,0,0,51.83,193.62L496.62,514.82Z" transform="translate(-109.43 -127.63)"/><path class="cls-4" d="M496.12,901.5A386.59,386.59,0,0,1,303.68,850L496.12,516.68Z" transform="translate(-109.43 -127.63)"/><path class="cls-2" d="M495.62,518.55V901a384.47,384.47,0,0,1-191.26-51.19L495.62,518.55m1-3.73L303,850.18A385.41,385.41,0,0,0,496.62,902V514.82Z" transform="translate(-109.43 -127.63)"/><path class="cls-1" d="M497.12,516.68,689.56,850a386.59,386.59,0,0,1-192.44,51.5Z" transform="translate(-109.43 -127.63)"/><path class="cls-2" d="M497.62,518.55,688.87,849.81A384.4,384.4,0,0,1,497.62,901V518.55m-1-3.73V902a385.44,385.44,0,0,0,193.62-51.82L496.62,514.82Z" transform="translate(-109.43 -127.63)"/></g><g id="Camada_5" data-name="Camada 5"><text class="cls-6" transform="translate(285.13 117.21)">T</text><text class="cls-7" transform="translate(408.74 94.95) rotate(25.09)">9b</text><text class="cls-7" transform="translate(580.42 152.03) rotate(50.41)">9</text><text class="cls-7" transform="translate(676.62 237.73) rotate(84.31)">3m</text><text class="cls-8" transform="translate(590.21 290.79) rotate(81.68)">9#</text><text class="cls-7" transform="translate(709.75 401.88) rotate(111.2)">3M</text><text class="cls-7" transform="translate(636.83 581.11) rotate(147.78)">4</text><text class="cls-8" transform="translate(571.42 526.78) rotate(147.78)">11</text><text class="cls-8" transform="matrix(-1, 0.05, -0.05, -1, 488.91, 591.35)">11#</text><text class="cls-7" transform="translate(517.61 673.32) rotate(174.31)">5b</text><text class="cls-7" transform="matrix(-0.95, -0.33, 0.33, -0.95, 349.41, 686.29)">5</text><text class="cls-7" transform="translate(205.24 641.94) rotate(-129.59)">5#</text><text class="cls-8" transform="translate(239.76 584.79) rotate(-134.89)">6b</text><text class="cls-8" transform="matrix(-0.6, -0.8, 0.8, -0.6, 285.04, 544.4)">13b</text><text class="cls-7" transform="translate(99.28 510.13) rotate(-95.69)">6</text><text class="cls-8" transform="translate(190.46 468.32) rotate(-101.98)">13</text><text class="cls-7" transform="translate(99.45 338.61) rotate(-85.19)">7</text><text class="cls-7" transform="translate(130.63 238.15) rotate(-39.59)">7M</text></g></svg>